<?xml version="1.0" encoding="UTF-8"?>
<svg version="1.1" xmlns="http://www.w3.org/2000/svg" width="605" height="603">
<path d="M0 0 C199.65 0 399.3 0 605 0 C605 198.99 605 397.98 605 603 C405.35 603 205.7 603 0 603 C0 404.01 0 205.02 0 0 Z " fill="#FEFEFE" transform="translate(0,0)"/>
<path d="M0 0 C1.14082031 0.1848999 1.14082031 0.1848999 2.3046875 0.37353516 C45.11815726 7.48689412 84.00293259 35.15001539 109 70 C122.47693907 89.25831312 130.79574466 110.18513656 136 133 C136.34761663 134.29818769 136.69527411 135.59636445 137.04296875 136.89453125 C139.36280248 146.31836573 139.2170759 155.90964654 139.24023438 165.55322266 C139.24986762 167.96683192 139.28093284 170.37956093 139.3125 172.79296875 C139.55793367 209.03055499 125.7273852 245.93251866 103 274 C102.53029785 274.58249512 102.0605957 275.16499023 101.57666016 275.76513672 C86.34858568 294.50298902 68.26756657 309.25166739 46.9375 320.5625 C46.15246094 320.98007568 45.36742187 321.39765137 44.55859375 321.82788086 C39.94861064 324.20441004 36.15931301 325.52591057 31 327 C31 334.92 31 342.84 31 351 C34.63 350.34 38.26 349.68 42 349 C45.07887085 348.60608684 48.14461989 348.24035216 51.23046875 347.921875 C52.99772555 347.73148428 54.76497796 347.54105272 56.53222656 347.35058594 C57.45265747 347.25289917 58.37308838 347.1552124 59.32141113 347.05456543 C72.90716233 345.61087323 86.48165053 344.0970126 100.03515625 342.375 C101.10319992 342.23942688 102.17124359 342.10385376 103.27165222 341.96417236 C108.42216682 341.30792096 113.57137467 340.64263119 118.71948242 339.96777344 C127.36374275 338.84621655 136.00893851 337.79038351 144.703125 337.140625 C145.75364044 337.04705719 145.75364044 337.04705719 146.82537842 336.95159912 C151.54615069 336.65430112 151.54615069 336.65430112 153.67877179 338.27872735 C155.96053319 341.25136558 155.39892857 344.88658668 155.36076355 348.48503113 C155.36332682 349.36147461 155.3658901 350.23791809 155.36853105 351.14092046 C155.37348778 354.08916764 155.35694488 357.03690712 155.34057617 359.98510742 C155.33973031 362.09389738 155.34020424 364.20268822 155.34190369 366.31147766 C155.34276665 372.04673121 155.32509212 377.78179764 155.30418181 383.51700759 C155.28546519 389.50679696 155.28366854 395.49659032 155.28010559 401.48640442 C155.27077037 412.83362194 155.24613659 424.18075305 155.21605712 435.52793247 C155.18255907 448.44431005 155.16603867 461.36069169 155.15097082 474.27710187 C155.11958833 500.85144921 155.06679914 527.42571977 155 554 C156.10025009 553.99777939 157.20050018 553.99555878 158.33409119 553.99327087 C168.6792282 553.97304033 179.02436123 553.95802829 189.36951351 553.94818783 C194.68865213 553.94295878 200.00777484 553.93586073 205.3269043 553.92456055 C210.45563985 553.91373245 215.58436006 553.90772333 220.71310616 553.90512276 C222.67441614 553.90326837 224.63572524 553.89964749 226.59702873 553.89426994 C229.33415447 553.88706054 232.07121597 553.88600901 234.80834961 553.88647461 C235.62761932 553.88287933 236.44688904 553.87928406 237.29098511 553.87557983 C242.88594784 553.88594784 242.88594784 553.88594784 244 555 C244.04092937 557.33297433 244.04241723 559.66705225 244 562 C240.62485754 563.68757123 236.79695712 563.15640543 233.08398438 563.16113281 C232.1603157 563.16609772 231.23664703 563.17106262 230.2849884 563.17617798 C227.22123478 563.1908162 224.15753289 563.19760341 221.09375 563.203125 C218.97147621 563.20887388 216.84920245 563.21463164 214.72692871 563.22039795 C210.27481849 563.23091184 205.82272636 563.23675237 201.37060547 563.24023438 C195.65364115 563.24572823 189.93691391 563.26977367 184.22002411 563.29820633 C179.83639822 563.31678618 175.45283004 563.32203576 171.06916809 563.32357025 C168.96074625 563.32660648 166.85232566 563.33466737 164.74394226 563.34775543 C161.80111368 563.36472329 158.85887264 563.36295879 155.91601562 563.35644531 C154.59903435 563.37026749 154.59903435 563.37026749 153.25544739 563.3843689 C150.83361816 563.36749268 150.83361816 563.36749268 147 563 C144.43384605 559.15076908 144.72779993 556.01382 144.75949097 551.55293274 C144.75692769 550.24439285 144.75692769 550.24439285 144.75431263 548.90941781 C144.75100833 545.97509247 144.7620369 543.04099386 144.77294922 540.10668945 C144.77351313 538.00775152 144.77319717 535.90881319 144.77206421 533.80987549 C144.77148891 528.10152315 144.78327187 522.39325437 144.79721212 516.6849215 C144.80968999 510.72315405 144.81088765 504.76138482 144.81326294 498.79960632 C144.81948638 487.50553573 144.83590887 476.21150371 144.85596192 464.91745013 C144.87829406 452.06152413 144.88930759 439.20559631 144.89935279 426.34965575 C144.92027435 399.89974908 144.9554671 373.4498767 145 347 C144.01 347.33 143.02 347.66 142 348 C139.18371357 348.36234551 136.37425976 348.6859559 133.55078125 348.98046875 C131.75755957 349.17407227 129.96434712 349.36776129 128.17114258 349.56152344 C127.21785065 349.66331909 126.26455872 349.76511475 125.28237915 349.86999512 C111.4969874 351.34376862 97.721765 352.87644648 83.96875 354.62890625 C82.90504684 354.76423264 81.84134369 354.89955902 80.7454071 355.03898621 C75.61906521 355.69351763 70.49411072 356.35747281 65.37036133 357.03198242 C63.47218598 357.27666971 61.57399342 357.52122353 59.67578125 357.765625 C58.86149658 357.87584488 58.04721191 357.98606476 57.20825195 358.09962463 C51.36193029 358.84538709 45.5237682 359.22596444 39.64152527 359.53656006 C38.80888704 359.58161619 37.97624881 359.62667233 37.11837912 359.6730938 C35.07898465 359.78327682 33.03950094 359.89180573 31 360 C31.00276538 361.54197162 31.00276538 361.54197162 31.00558662 363.11509418 C31.04994054 388.10167052 31.08283002 413.08824177 31.10362434 438.07484913 C31.11394701 450.15806793 31.12802622 462.24126076 31.15087891 474.32446289 C31.17078251 484.85335659 31.18370923 495.38223149 31.18817699 505.91114348 C31.19078951 511.48866108 31.19695056 517.06612487 31.21146011 522.64362526 C31.2249962 527.88923305 31.22923072 533.13476467 31.22621536 538.38038826 C31.22676731 540.30936344 31.23076833 542.23834106 31.23841095 544.16730118 C31.24831006 546.79378319 31.24598739 549.41997477 31.24050903 552.04646301 C31.24924756 553.20063971 31.24924756 553.20063971 31.25816262 554.37813312 C31.2368684 558.13555775 31.13917196 559.79124206 29 563 C25.8671875 563.37231445 25.8671875 563.37231445 21.875 563.36328125 C21.1722998 563.36377975 20.46959961 563.36427826 19.74560547 563.36479187 C18.25941135 563.36245061 16.77321333 563.35271888 15.28710938 563.33618164 C13.00875495 563.31259065 10.73157047 563.31561934 8.453125 563.32226562 C-2.72092744 563.27907256 -2.72092744 563.27907256 -5 561 C-5.19766815 558.30890652 -5.26923821 555.72062276 -5.25396729 553.02832031 C-5.25708727 552.19497791 -5.26020725 551.36163551 -5.26342177 550.50304031 C-5.27143552 547.69466447 -5.26506505 544.88650268 -5.25878906 542.078125 C-5.26149743 540.07124708 -5.26505748 538.06437015 -5.26940918 536.05749512 C-5.27855384 530.59481892 -5.27498039 525.13221798 -5.26865101 519.66954041 C-5.26360174 513.96361075 -5.26827946 508.25768771 -5.27142334 502.55175781 C-5.27506612 492.96808714 -5.27025571 483.38444725 -5.26074219 473.80078125 C-5.24985705 462.70698708 -5.25338241 451.61326642 -5.264395 440.51947403 C-5.27345899 431.00949599 -5.27475751 421.49954013 -5.26951766 411.98955917 C-5.26639306 406.30312647 -5.266002 400.61672836 -5.27259064 394.93029785 C-5.27835058 389.58533777 -5.27439208 384.24047283 -5.26280212 378.89552307 C-5.26014828 376.92904316 -5.26093289 374.96255529 -5.26532745 372.99607849 C-5.27075589 370.32116927 -5.2639819 367.64656898 -5.25396729 364.97167969 C-5.25842873 364.18511616 -5.26289017 363.39855263 -5.26748681 362.58815384 C-5.2283001 357.2283001 -5.2283001 357.2283001 -3 355 C-1.1081543 354.49755859 -1.1081543 354.49755859 1.17578125 354.1484375 C2.00400391 354.01953125 2.83222656 353.890625 3.68554688 353.7578125 C4.98588867 353.56832031 4.98588867 353.56832031 6.3125 353.375 C7.16779297 353.2409375 8.02308594 353.106875 8.90429688 352.96875 C13.04616928 352.33992971 16.77493582 352 21 352 C21 345.07 21 338.14 21 331 C16.1673138 332.49860645 16.1673138 332.49860645 11.34204102 334.02075195 C-2.6574753 338.24619979 -16.57930061 339.55865895 -31.125 339.4375 C-31.92948578 339.43379395 -32.73397156 339.43008789 -33.56283569 339.42626953 C-58.56548076 339.26310602 -81.01201374 333.90233757 -104 324 C-103.99815641 325.21959097 -103.99631283 326.43918194 -103.99441338 327.69573021 C-103.95113248 356.62216784 -103.91813642 385.5486049 -103.89786934 414.4750674 C-103.89536782 418.03253197 -103.89277918 421.58999647 -103.89013672 425.14746094 C-103.8896121 425.85571202 -103.88908748 426.5639631 -103.88854696 427.29367633 C-103.87983551 438.77365352 -103.86406149 450.25361076 -103.84569441 461.7335761 C-103.82701589 473.5060537 -103.81588763 485.27852083 -103.81182301 497.05101264 C-103.80920891 503.66639708 -103.80303793 510.28173621 -103.78853989 516.89710617 C-103.77501838 523.11696859 -103.7707663 529.33676681 -103.77378464 535.55664253 C-103.77323203 537.84563737 -103.7692224 540.13463424 -103.76158905 542.42361641 C-103.75171274 545.53650937 -103.7540042 548.64915639 -103.75949097 551.76205444 C-103.75366528 552.67838351 -103.7478396 553.59471257 -103.74183738 554.53880918 C-103.77175758 560.77175758 -103.77175758 560.77175758 -106 563 C-109.1328125 563.25878906 -109.1328125 563.25878906 -113.125 563.265625 C-114.17905029 563.26849518 -114.17905029 563.26849518 -115.25439453 563.27142334 C-116.74056354 563.27278475 -118.22674445 563.26909132 -119.71289062 563.26074219 C-121.99115646 563.25004154 -124.26863377 563.26063839 -126.546875 563.2734375 C-127.98958508 563.2721159 -129.43229466 563.26955349 -130.875 563.265625 C-132.85113281 563.26224121 -132.85113281 563.26224121 -134.8671875 563.25878906 C-138 563 -138 563 -140 561 C-140.24839699 558.49456871 -140.24839699 558.49456871 -140.24609566 555.25658989 C-140.25007775 554.02645255 -140.25405985 552.79631521 -140.25816262 551.52890098 C-140.2524558 550.15133648 -140.24656459 548.77377273 -140.24050903 547.39620972 C-140.24138044 545.94255311 -140.24313022 544.48889681 -140.24568737 543.0352422 C-140.25017772 539.02636706 -140.24213418 535.01759798 -140.23213124 531.00873637 C-140.22352322 526.69107605 -140.22641502 522.37342209 -140.22793579 518.05575562 C-140.22898633 510.57034759 -140.22269217 503.08497433 -140.21146011 495.59957504 C-140.19523084 484.7768454 -140.18999975 473.95413263 -140.18748413 463.13139214 C-140.18310298 445.57375058 -140.1697825 428.01612757 -140.15087891 410.45849609 C-140.13253097 393.39925225 -140.11836915 376.34001343 -140.10986328 359.28076172 C-140.10933783 358.22986472 -140.10881239 357.17896773 -140.10827102 356.09622537 C-140.10566101 350.82437358 -140.10313358 345.55252177 -140.10064721 340.28066993 C-140.07990163 296.52043377 -140.04466468 252.76021784 -140 209 C-145.82746416 212.83610354 -151.65418855 216.67332897 -157.48046875 220.51123047 C-159.45036232 221.80867169 -161.42040734 223.10588301 -163.390625 224.40283203 C-164.33421875 225.02399902 -165.2778125 225.64516602 -166.25 226.28515625 C-167.20134547 226.90946805 -168.15269095 227.53377984 -169.13286507 228.17701018 C-171.08007032 229.46472245 -173.01864933 230.76556614 -174.94874561 232.07878339 C-180.08299041 235.55041093 -185.19757938 238.67733481 -190.72632027 241.48555946 C-201.93223815 247.23928344 -201.93223815 247.23928344 -209.31146002 257.00743055 C-211.3375708 265.17011077 -211.11489649 273.44268375 -210.84079981 281.7824297 C-210.74436833 285.53421621 -210.78872704 289.28486116 -210.81510925 293.03742981 C-210.84196233 299.52242987 -210.78207415 306.00182614 -210.66158676 312.4856987 C-210.48767268 321.86116618 -210.44980476 331.23343118 -210.44429149 340.61033185 C-210.43188907 355.82878099 -210.31420744 371.04447432 -210.12792969 386.26171875 C-209.94741584 401.02891806 -209.81200233 415.7953279 -209.74023438 430.56347656 C-209.7357852 431.47514982 -209.73133603 432.38682308 -209.72675203 433.32612281 C-209.70043387 438.80711523 -209.67599206 444.28811476 -209.65233025 449.76911923 C-209.61786391 457.74123981 -209.58154651 465.71335111 -209.54348755 473.68545532 C-209.53945506 474.54271303 -209.53542258 475.39997073 -209.5312679 476.28320594 C-209.47434881 488.16440161 -209.38232623 500.04485655 -209.26114401 511.92556497 C-209.21359129 516.66345918 -209.17072465 521.40139903 -209.12748377 526.13933431 C-209.08645744 530.54579068 -209.0364887 534.95202893 -208.97967535 539.35830852 C-208.93975732 542.64288281 -208.91244185 545.92756713 -208.88302612 549.21224976 C-208.86472052 550.39003128 -208.84641491 551.56781281 -208.82755458 552.78128469 C-208.8202193 553.84480205 -208.81288402 554.9083194 -208.80532646 556.00406456 C-208.79459504 556.92722509 -208.78386362 557.85038562 -208.772807 558.80152071 C-209 561 -209 561 -211 563 C-214.0023537 563.19889816 -216.91250098 563.27263848 -219.91601562 563.25878906 C-220.8396843 563.2622937 -221.76335297 563.26579834 -222.7150116 563.26940918 C-225.7788334 563.27823676 -228.8424257 563.27237371 -231.90625 563.265625 C-234.02852422 563.26697135 -236.15079813 563.26891164 -238.27307129 563.27142334 C-242.72520885 563.274376 -247.17726627 563.2700724 -251.62939453 563.26074219 C-257.34631987 563.24934761 -263.06305745 563.25590632 -268.77997589 563.26788712 C-273.16360905 563.27510188 -277.54719743 563.27281955 -281.93083191 563.26763153 C-284.03924074 563.26629397 -286.1476536 563.26794644 -288.25605774 563.27259064 C-291.19881006 563.27764956 -294.14125504 563.26995454 -297.08398438 563.25878906 C-297.96197189 563.26283752 -298.83995941 563.26688599 -299.74455261 563.27105713 C-305.77147234 563.22852766 -305.77147234 563.22852766 -308 561 C-308.25 558.5 -308.25 558.5 -308 556 C-305.41696916 553.41696916 -303.68573289 553.76417826 -300.16656494 553.75115967 C-299.3508905 553.75835022 -298.53521606 553.76554077 -297.69482422 553.77294922 C-296.83621796 553.77265717 -295.97761169 553.77236511 -295.09298706 553.77206421 C-292.24678543 553.77346078 -289.40084356 553.78903727 -286.5546875 553.8046875 C-284.58456566 553.80841647 -282.61444198 553.81126399 -280.64431763 553.81326294 C-275.45256452 553.82090854 -270.26092286 553.84056496 -265.06921387 553.8626709 C-259.7740225 553.8831094 -254.47881317 553.89226038 -249.18359375 553.90234375 C-238.78901346 553.92380999 -228.39451599 553.95795708 -218 554 C-218.00417692 553.35766702 -218.00835385 552.71533403 -218.01265734 552.05353642 C-218.2588172 513.98350607 -218.44755192 475.91359343 -218.56171862 437.8429302 C-218.57547639 433.2717503 -218.58971394 428.70057202 -218.60424805 424.12939453 C-218.60713346 423.21935551 -218.61001888 422.30931649 -218.61299173 421.37170053 C-218.66085633 406.63640729 -218.74758599 391.90158612 -218.84868076 377.16657293 C-218.95154876 362.04699784 -219.01264658 346.92766996 -219.03497344 331.80775928 C-219.05006723 322.47766529 -219.09773419 313.14890553 -219.18708114 303.81922227 C-219.24522948 297.42140821 -219.26280133 291.02428382 -219.24851515 284.6262247 C-219.2414684 280.93428284 -219.25225983 277.24467164 -219.31126022 273.55314445 C-219.37481139 269.54758037 -219.35286443 265.54696944 -219.32279968 261.54101562 C-219.35484094 260.37757913 -219.38688219 259.21414263 -219.4198944 258.01545048 C-219.31963881 253.079174 -219.15036832 250.18005448 -215.61577189 246.554245 C-212.82318757 244.50004215 -210.00453159 242.72501502 -207 241 C-205.54046309 240.02182978 -204.08677326 239.03474537 -202.64453125 238.03125 C-201.36881272 237.18504474 -200.09151539 236.34121385 -198.8125 235.5 C-198.14669922 235.05914062 -197.48089844 234.61828125 -196.79492188 234.1640625 C-195.19807892 233.10715925 -193.59926848 232.05322944 -192 231 C-192.17893799 230.41798828 -192.35787598 229.83597656 -192.54223633 229.23632812 C-193.37967495 226.496196 -194.18787489 223.74774347 -195 221 C-195.19287598 220.36707031 -195.38575195 219.73414063 -195.58447266 219.08203125 C-209.05439975 174.7105067 -204.62473298 128.30055882 -183.0625 87.2578125 C-161.80257904 48.11179251 -125.31277626 17.269811 -82.57275391 4.26123047 C-55.00096711 -3.61564092 -28.24149155 -4.90848455 0 0 Z " fill="#373636" transform="translate(347,19)"/>
<path d="M0 0 C0.76054687 0.1232666 1.52109375 0.2465332 2.3046875 0.37353516 C45.11815726 7.48689412 84.00293259 35.15001539 109 70 C122.47693907 89.25831312 130.79574466 110.18513656 136 133 C136.34761663 134.29818769 136.69527411 135.59636445 137.04296875 136.89453125 C139.36280248 146.31836573 139.2170759 155.90964654 139.24023438 165.55322266 C139.24986762 167.96683192 139.28093284 170.37956093 139.3125 172.79296875 C139.55793367 209.03055499 125.7273852 245.93251866 103 274 C102.53029785 274.58249512 102.0605957 275.16499023 101.57666016 275.76513672 C86.34858568 294.50298902 68.26756657 309.25166739 46.9375 320.5625 C46.15246094 320.98007568 45.36742187 321.39765137 44.55859375 321.82788086 C40.09975107 324.12649443 35.84957107 325.64308465 31 327 C31.00222061 326.12847447 31.00444122 325.25694895 31.00672913 324.35901356 C31.05799791 303.16032962 31.06522914 281.96203047 31.02334595 260.76331806 C31.00415529 250.51175053 30.99991182 240.26058234 31.03076172 230.0090332 C31.05761044 221.07452487 31.05651053 212.14053377 31.02174091 203.20604485 C31.00430594 198.47435882 31.00094017 193.74359946 31.03103638 189.01195717 C31.05892077 184.55865379 31.04945039 180.10699571 31.01126289 175.6537838 C31.00384124 174.01914192 31.01009619 172.38437223 31.03101921 170.74984741 C31.49747621 162.32319608 31.49747621 162.32319608 28.28486633 154.96535778 C26.20983916 153.63476743 24.3245551 152.79885349 22 152 C20.73585089 151.36416756 19.47802674 150.71540597 18.23046875 150.04760742 C16.88491715 149.39586472 15.53712039 148.74874355 14.1875 148.10546875 C12.57758666 147.32668225 10.96772667 146.54778546 9.35791016 145.76879883 C8.49224426 145.35191803 7.62657837 144.93503723 6.73468018 144.50552368 C-9.89961867 136.48835224 -26.44815354 128.30295199 -42.9609375 120.0390625 C-43.83598183 119.60116961 -44.71102615 119.16327671 -45.61258698 118.71211433 C-54.48899889 114.26926283 -63.36264186 109.82090381 -72.23431015 105.36858845 C-76.43415314 103.26125629 -80.63483796 101.15560713 -84.8359375 99.05078125 C-85.64131706 98.64714796 -86.44669662 98.24351467 -87.27648163 97.82765007 C-97.85554348 92.52901636 -108.46014973 87.29912945 -119.17489624 82.27864075 C-122.85242241 80.549189 -126.4252305 78.7893027 -129.91552734 76.7043457 C-132.83419813 74.72954208 -132.83419813 74.72954208 -135.875 75.1875 C-137.95204276 75.81606274 -137.95204276 75.81606274 -139 77 C-139.01446712 78.49416076 -138.95592925 79.98908171 -138.86886597 81.48077393 C-138.79033638 82.9345192 -138.79033638 82.9345192 -138.71022034 84.41763306 C-138.61752113 86.02703262 -138.61752113 86.02703262 -138.52294922 87.66894531 C-137.91160045 99.28191867 -137.5173188 110.89272968 -137.24535942 122.51774979 C-137.07438152 129.55483032 -136.82454476 136.57191909 -136.38378906 143.59765625 C-133.66932154 187.82916996 -133.66932154 187.82916996 -141.95625305 199.83389282 C-152.34390656 211.52597766 -166.74701555 218.6579346 -180.82767105 224.93682098 C-182.85676418 225.92989767 -184.60019125 227.03111798 -186.43014526 228.34771729 C-187.27819733 228.89297058 -188.12624939 229.43822388 -189 230 C-192 229 -192 229 -193.02734375 227.27734375 C-196.10230018 219.37219826 -198.24846728 211.28658678 -200 203 C-200.23082275 201.91428711 -200.23082275 201.91428711 -200.46630859 200.80664062 C-209.18406639 157.79275245 -199.87778216 111.84701741 -175.85205078 75.25146484 C-148.9000929 35.20445492 -109.69421308 9.09140076 -62.53955078 -0.50048828 C-41.561938 -4.55674734 -20.96215343 -3.64330637 0 0 Z " fill="#CCA770" transform="translate(347,19)"/>
<path d="M0 0 C4.28732996 1.42910999 7.84969756 2.80418576 11.82397461 4.80639648 C12.95052963 5.37136337 14.07708466 5.93633026 15.23777771 6.51841736 C16.45930593 7.13596388 17.68082776 7.75352304 18.90234375 8.37109375 C20.18367544 9.01490534 21.46521973 9.65829399 22.7469635 10.30128479 C26.12804754 11.99846799 29.5068869 13.70006792 32.8850708 15.40301514 C38.86743403 18.41830268 44.85273541 21.42774027 50.83984375 24.43359375 C51.49543022 24.76287369 52.15101669 25.09215363 52.82646942 25.43141174 C61.88296898 29.97715481 70.98436813 34.41528829 80.14125061 38.75569153 C92.57067059 44.66697108 104.86357226 50.85640313 117.16943359 57.01953125 C120.73094473 58.8031957 124.29430654 60.58312943 127.85816002 62.36210823 C130.62797666 63.74521884 133.39684704 65.13021482 136.16542435 66.51580429 C137.48169234 67.17427126 138.79825646 67.8321466 140.11512375 68.48941422 C141.93106652 69.39612438 143.74560131 70.30565284 145.56005859 71.21533203 C146.58988861 71.73064484 147.61971863 72.24595764 148.68075562 72.77688599 C151 74 151 74 152 75 C152.09696917 77.17692611 152.12186746 79.35706393 152.12025452 81.53614807 C152.12153615 82.57261023 152.12153615 82.57261023 152.12284368 83.63001102 C152.12450047 85.9624322 152.1189739 88.29478263 152.11352539 90.62719727 C152.11324354 92.29234821 152.11340122 93.95749928 152.1139679 95.62265015 C152.11425594 100.15758106 152.10835816 104.69248576 152.10139394 109.22741055 C152.09516148 113.96133369 152.09455669 118.69525736 152.09336853 123.42918396 C152.09025489 132.400021 152.08204108 141.37084592 152.07201904 150.34167761 C152.0608589 160.55190392 152.0553477 170.7621308 152.05032361 180.97236168 C152.03985849 201.98158123 152.02225843 222.99078985 152 244 C149.34346924 244.8002756 146.68562757 245.59566076 144.02685547 246.38842773 C143.28666672 246.61194664 142.54647797 246.83546555 141.78385925 247.06575775 C127.86842136 251.20061043 114.33072029 252.55790946 99.875 252.4375 C98.66827133 252.43194092 98.66827133 252.43194092 97.43716431 252.42626953 C72.43451924 252.26310602 49.98798626 246.90233757 27 237 C26.99576806 236.25363061 26.99153612 235.50726122 26.98717594 234.73827457 C26.88401243 216.60376486 26.77539644 198.46929538 26.66066074 180.33485508 C26.60530858 171.56529149 26.55182337 162.79572384 26.50268555 154.02612305 C26.45986806 146.38534543 26.41359632 138.74459801 26.36312145 131.10386699 C26.33650081 127.05563388 26.31164734 123.00740684 26.29092598 118.95913887 C26.27139034 115.15316196 26.24725599 111.34724263 26.21950912 107.54131699 C26.21012234 106.14043533 26.20245296 104.73954101 26.19658089 103.33864021 C26.18834734 101.43407343 26.17348171 99.52953868 26.15821838 97.62501526 C26.15176583 96.55665719 26.14531328 95.48829912 26.1386652 94.38756657 C26.26818547 92.04654583 26.26818547 92.04654583 25 91 C18.53568782 91.19085902 14.78146028 93.78097805 9.6875 97.5625 C8.27754401 98.58850044 6.86491099 99.61083539 5.44921875 100.62890625 C4.83393311 101.08338135 4.21864746 101.53785645 3.5847168 102.00610352 C2 103 2 103 0 103 C0 69.01 0 35.02 0 0 Z " fill="#CCA66F" transform="translate(216,106)"/>
<path d="M0 0 C0 120.12 0 240.24 0 364 C-5.94 364 -11.88 364 -18 364 C-18.2508997 319.29361209 -18.44558585 274.58731708 -18.56171862 229.88036349 C-18.57547652 224.60318388 -18.58971405 219.32600566 -18.60424805 214.04882812 C-18.60713346 212.99823021 -18.61001888 211.94763229 -18.61299173 210.86519808 C-18.66086581 193.85048799 -18.74760095 176.83618643 -18.84868076 159.82171875 C-18.95152189 142.36527405 -19.01264099 124.9090434 -19.03497344 107.45230818 C-19.05007259 96.67894763 -19.0977705 85.90674169 -19.18708114 75.13373655 C-19.24519592 67.7477774 -19.26280865 60.36241573 -19.24851515 52.97624451 C-19.24146365 48.71330046 -19.25232084 44.45237454 -19.31126022 40.18978882 C-19.36485598 36.28513992 -19.36746908 32.38386198 -19.32988784 28.47905678 C-19.3252451 27.06835779 -19.33916268 25.65744725 -19.37371501 24.24716383 C-19.61649013 13.72443768 -19.61649013 13.72443768 -15.59009135 9.42916012 C-12.80875625 7.38225189 -10.02394949 5.66089247 -7 4 C-5.78303434 3.17932437 -4.5724994 2.34882806 -3.375 1.5 C-1 0 -1 0 0 0 Z " fill="#FEFEFE" transform="translate(234,209)"/>
<path d="M0 0 C0 63.03 0 126.06 0 191 C-5.28 191 -10.56 191 -16 191 C-16 128.3 -16 65.6 -16 1 C-8 0 -8 0 0 0 Z " fill="#FEFEFE" transform="translate(368,381)"/>
<path d="M0 0 C0 120.12 0 240.24 0 364 C-5.94 364 -11.88 364 -18 364 C-18.2508997 319.29361209 -18.44558585 274.58731708 -18.56171862 229.88036349 C-18.57547652 224.60318388 -18.58971405 219.32600566 -18.60424805 214.04882812 C-18.60713346 212.99823021 -18.61001888 211.94763229 -18.61299173 210.86519808 C-18.66086581 193.85048799 -18.74760095 176.83618643 -18.84868076 159.82171875 C-18.95152189 142.36527405 -19.01264099 124.9090434 -19.03497344 107.45230818 C-19.05007259 96.67894763 -19.0977705 85.90674169 -19.18708114 75.13373655 C-19.24519592 67.7477774 -19.26280865 60.36241573 -19.24851515 52.97624451 C-19.24146365 48.71330046 -19.25232084 44.45237454 -19.31126022 40.18978882 C-19.36485598 36.28513992 -19.36746908 32.38386198 -19.32988784 28.47905678 C-19.3252451 27.06835779 -19.33916268 25.65744725 -19.37371501 24.24716383 C-19.61649013 13.72443768 -19.61649013 13.72443768 -15.59009135 9.42916012 C-12.80875625 7.38225189 -10.02394949 5.66089247 -7 4 C-5.78303434 3.17932437 -4.5724994 2.34882806 -3.375 1.5 C-1 0 -1 0 0 0 Z M-17 119 C-17 199.52 -17 280.04 -17 363 C-11.72 363 -6.44 363 -1 363 C-0.68044939 333.21601407 -0.43277665 303.43208591 -0.28508539 273.64675445 C-0.26757603 270.12835106 -0.24945546 266.60995106 -0.23095703 263.09155273 C-0.22728469 262.39111906 -0.22361234 261.69068538 -0.21982871 260.96902644 C-0.15895083 249.63552321 -0.04859246 238.3030167 0.08013915 226.97010428 C0.21118026 215.33662412 0.28779932 203.70372438 0.31723893 192.06954092 C0.33548991 185.53623724 0.37836179 179.00519195 0.48022079 172.47261238 C0.57535086 166.32167136 0.60454575 160.17391514 0.58350754 154.02230835 C0.58735506 151.7667197 0.61515568 149.5110232 0.66887665 147.25607109 C1.39562981 136.1608296 1.39562981 136.1608296 -2.41805029 126.17705226 C-6.25286445 122.7176582 -11.68263652 119 -17 119 Z " fill="#C1A479" transform="translate(234,209)"/>
<path d="M0 0 C0.66 0 1.32 0 2 0 C2 30.03 2 60.06 2 91 C-6.33397431 85.99961541 -12.8786737 79.49398735 -19 72 C-19.83402344 70.99195313 -20.66804688 69.98390625 -21.52734375 68.9453125 C-45 40.12202586 -45 40.12202586 -45 30 C-43.33631897 28.66526794 -43.33631897 28.66526794 -40.97680664 27.12670898 C-40.09912125 26.54948593 -39.22143585 25.97226288 -38.31715393 25.37754822 C-37.3578447 24.75666824 -36.39853546 24.13578827 -35.41015625 23.49609375 C-34.43590195 22.85761002 -33.46164764 22.21912628 -32.45787048 21.56129456 C-29.33032037 19.51345756 -26.19663084 17.47524809 -23.0625 15.4375 C-19.93325446 13.39422894 -16.8052706 11.34904332 -13.67784119 9.30299377 C-11.72716736 8.02777517 -9.77517597 6.75456947 -7.8217926 5.48350525 C-6.94095505 4.90943436 -6.06011749 4.33536346 -5.15258789 3.74389648 C-4.37315323 3.23696762 -3.59371857 2.73003876 -2.79066467 2.20774841 C-1.05913621 1.12274802 -1.05913621 1.12274802 0 0 Z " fill="#CCA670" transform="translate(205,228)"/>
</svg>
